<svg xmlns="http://www.w3.org/2000/svg" viewBox="0 0 443.36 322.81"><defs><style>.cls-1{fill:#fff;stroke:#fff;stroke-miterlimit:10;}</style></defs><g id="Layer_2" data-name="Layer 2"><g id="Layer_1-2" data-name="Layer 1"><path class="cls-1" d="M427.51,158.36a516.76,516.76,0,0,0-46-118A226.48,226.48,0,0,0,283.05.54l-5.54,8.82a197.67,197.67,0,0,1,94,52,311.3,311.3,0,0,0-300-1,180,180,0,0,1,95-51L161.87.54A199.67,199.67,0,0,0,61.51,40.36,518.06,518.06,0,0,0,.51,262.1a188,188,0,0,0,131.56,60.18l14.44-21.92a158.4,158.4,0,0,1-85-58c20.9,14.1,80.29,50.17,164,49,78.94-1.11,134.81-34.7,156-49a134.4,134.4,0,0,1-85,57l16.34,22.92a226.78,226.78,0,0,0,130-60.18A516.54,516.54,0,0,0,427.51,158.36Zm-293,2a50,50,0,1,1,50-50A50,50,0,0,1,134.51,160.36Zm85.92,75.5c-10.54,0-19.09-5.48-19.09-12.25s8.55-12.25,19.09-12.25,19.08,5.48,19.08,12.25S231,235.86,220.43,235.86Zm80.08-75.5a50,50,0,1,1,50-50A50,50,0,0,1,300.51,160.36Z"/></g></g></svg>