<svg xmlns="http://www.w3.org/2000/svg" viewBox="0 0 200.14 197.19"><defs><style>.cls-1{fill:none;stroke-width:7px;}.cls-1,.cls-2{stroke:#fff;}.cls-2{fill:#fff;}</style></defs><g id="Layer_2" data-name="Layer 2"><g id="Layer_1-2" data-name="Layer 1"><path class="cls-1" d="M39.11,133.94c-1.88-2.12-4.76-2.51-6.41-1.38-2,1.37-2.56,5.21,0,7.8l21.14,23.49a5.2,5.2,0,0,0,6.18-.4,5.29,5.29,0,0,0,.2-7.3"/><path class="cls-1" d="M91.45,59.12l43.12-41.7c15-19.49,46.65-15.53,55.54-6.18C198.45,20,201.68,51.8,182,66.12l-48.85,49.35"/><path class="cls-2" d="M38.71,113.45l-38-43a38,38,0,0,1,15-8c17.07-4.42,25.75,7.44,43,9,16.21,1.47,22.11-7.77,57-25a398.68,398.68,0,0,1,43-18.2A9.14,9.14,0,0,1,169.69,30c2.19,2.33,2.73,6.2,1.11,11.05a374.65,374.65,0,0,1-28.09,59.36c-12.33,21-19.32,27.89-19,42,.31,13.48,7,22.73,3,38a45.46,45.46,0,0,1-8,16c-12.06-11.11-23.94-26.89-36-38a17.83,17.83,0,0,1-6,4,18.17,18.17,0,0,1-10,1l-31-33a17.39,17.39,0,0,1-1-7A17.88,17.88,0,0,1,38.71,113.45Z"/></g></g></svg>