<svg xmlns="http://www.w3.org/2000/svg" viewBox="0 0 352.4 352.5"><defs><style>.cls-1{fill:#d91377;}.cls-2{fill:#53cbc8;}</style></defs><g id="Layer_1" data-name="Layer 1"><path d="M352.4,176.3A176.22,176.22,0,0,1,176.2,352.5c-32.4,0-63.2-8.1-88.9-24.1-9.9-6.1-13.3-12.2-9.3-20.8,9.3-20,98-133.2,97.3-133.3,0,0-89.5,71.9-129.9,97.8-11.9,7.7-16.7.1-17.2-.6C15,254.3,0,208.9,0,176.2A176.22,176.22,0,0,1,176.2,0C273.5,0,352.4,78.9,352.4,176.3Z"/></g><g id="Layer_3" data-name="Layer 3"><path class="cls-1" d="M194.9,95.9a278.93,278.93,0,0,1-2.3,37.1c-8.6,11.2-14.6,21.3-17.2,28.9-2.7-7.6-8.6-17.6-17.1-28.7A283.44,283.44,0,0,1,156,95.8c0-43.4,19.5-78.7,19.5-78.7S194.9,52.5,194.9,95.9Z"/><path class="cls-1" d="M166.6,165.9c-7.1-3.5-18.4-6.4-32.2-8.3A291.68,291.68,0,0,1,106,132.5C75.3,101.8,64.1,63.1,64.1,63.1s38.7,11.2,69.4,41.9a277.72,277.72,0,0,1,24.9,28.3C160.2,147.2,163.1,158.6,166.6,165.9Z"/><path class="cls-1" d="M134.1,191.6"/><path class="cls-1" d="M17.6,174.5S52.8,155,96.3,155a292.32,292.32,0,0,1,38.1,2.4c11.1,8.7,21.2,14.7,28.7,17.2"/><path class="cls-1" d="M187.2,174.7c7.3-2.4,17.2-8.1,28.2-16.4h0a284.37,284.37,0,0,1,38.8-2.5c43.4-.1,78.6,19.4,78.6,19.4"/><path class="cls-1" d="M286.9,62.9s-11.2,38.7-41.9,69.4a299.56,299.56,0,0,1-29.6,26h0c-13.3,1.9-24.2,4.7-31.2,8,3.6-7.3,6.6-18.9,8.5-33.3a287.19,287.19,0,0,1,24.9-28.3C248.3,74.1,286.9,62.9,286.9,62.9Z"/></g><g id="Layer_4" data-name="Layer 4"><path class="cls-2" d="M230.5,120.9a55.52,55.52,0,0,0-11,3.3,105.16,105.16,0,0,0-30.5,19c-.3-10.7-3-23-8.1-35.4a52.3,52.3,0,0,0-5.2-9.7C191.4,74.3,221.9,64,221.9,64S236.2,93,230.5,120.9Z"/><path class="cls-2" d="M175.7,98.1a52.3,52.3,0,0,0-5.2,9.7c-5,12.2-7.7,24.2-8.1,34.8-7.8-7.3-18.3-14-30.5-19.1a58.77,58.77,0,0,0-11.1-3.3c-5.3-27.7,8.8-56,8.8-56S160,74.4,175.7,98.1Z"/><path class="cls-2" d="M142.6,161.3c-10.5.4-22.6,3.1-34.7,8.1a67.72,67.72,0,0,0-9.9,5.3c-23.3-15.8-33.4-45.8-33.4-45.8s28.4-14.1,56.1-8.7a57.38,57.38,0,0,0,3.3,11.2C129,143.3,135.5,153.6,142.6,161.3Z"/><path class="cls-2" d="M286.7,129.6s-10.1,29.9-33.3,45.7a58.38,58.38,0,0,0-10.7-5.9,104.5,104.5,0,0,0-34.1-8.1,103.86,103.86,0,0,0,18.7-30.1,66.14,66.14,0,0,0,3.2-10.4C258.3,115.5,286.7,129.6,286.7,129.6Z"/></g><g id="Layer_5" data-name="Layer 5"><polyline class="cls-2" points="198.8 175 240.4 148.3 191.5 159.2 201.6 110.4 175.7 151.9 146.7 110.4 159.9 159.2 107.9 148.3 153.2 175"/><path class="cls-2" d="M175.7,197.5"/><path class="cls-2" d="M159.9,190.8"/></g><g id="Layer_6" data-name="Layer 6"><polyline points="184 178 260.1 174.6 185.2 170.6 236.1 113.9 179.5 165.4 175.5 88.2 172 165.4 114.8 112.8 167.5 171.1 89.6 174.6 166.3 178"/><path d="M172,183.2"/></g><g id="Layer_7" data-name="Layer 7"><polyline points="192 175.1 221 156 186.9 163.8 193.9 129 175.9 158.6 155.7 129 164.9 163.8 128.7 156 160.3 175.1"/><path d="M187.3,186.3"/><path d="M175.9,191.1"/><path d="M164.9,186.3"/></g><g id="Layer_8" data-name="Layer 8"><circle class="cls-1" cx="80.97" cy="193.01" r="5.83"/><path class="cls-1" d="M295,193.43"/><path class="cls-1" d="M144.38,198.79H97.45a6.12,6.12,0,0,1,0-11.56H159"/><path class="cls-1" d="M131.32,232.26H269.11a6.27,6.27,0,0,1,0,11.56H122.63"/><path class="cls-1" d="M113.63,255.89h24.23a6.27,6.27,0,0,1,0,11.55H105.12"/><path class="cls-1" d="M155.18,266.44a6.12,6.12,0,0,1,0-11.55H297.94a6.27,6.27,0,0,1,0,11.55Z"/><path class="cls-1" d="M183.59,289.07a6.13,6.13,0,0,1,0-11.56h87.76a6.28,6.28,0,0,1,0,11.56Z"/><path class="cls-1" d="M129.91,311.91a6.12,6.12,0,0,1,0-11.56h89.75a6.27,6.27,0,0,1,0,11.56Z"/><path class="cls-1" d="M148,210.3h52.22a6.27,6.27,0,0,1,0,11.56H139.63"/><circle class="cls-1" cx="42.27" cy="216.08" r="5.83"/><circle class="cls-1" cx="80.97" cy="238.04" r="5.83"/><circle class="cls-1" cx="50.52" cy="261.67" r="5.83"/><circle class="cls-1" cx="166.6" cy="283.4" r="5.83"/><circle class="cls-1" cx="113.73" cy="306.18" r="5.83"/><path class="cls-1" d="M114.63,221.86H58.26a6.13,6.13,0,0,1,0-11.56h71.42"/><path class="cls-1" d="M165.57,187.23h125.2a6.27,6.27,0,0,1,0,11.56H157"/></g></svg>