<svg xmlns="http://www.w3.org/2000/svg" viewBox="0 0 352.4 352.5"><defs><style>.cls-1{fill:#0e122f;}.cls-2{fill:#55c8c5;}.cls-3{fill:#f2b705;}</style></defs><g id="Layer_1" data-name="Layer 1"><path class="cls-1" d="M352.4,176.3A176.22,176.22,0,0,1,176.2,352.5c-32.4,0-63.2-8.1-88.9-24.1-9.9-6.1-13.3-12.2-9.3-20.8,9.3-20,98-133.2,97.3-133.3,0,0-89.5,71.9-129.9,97.8-11.9,7.7-16.7.1-17.2-.6C15,254.3,0,208.9,0,176.2A176.22,176.22,0,0,1,176.2,0C273.5,0,352.4,78.9,352.4,176.3Z"/></g><g id="Layer_3" data-name="Layer 3"><path class="cls-2" d="M194.9,95.9a278.93,278.93,0,0,1-2.3,37.1c-8.6,11.2-14.6,21.3-17.2,28.9-2.7-7.6-8.6-17.6-17.1-28.7A283.44,283.44,0,0,1,156,95.8c0-43.4,19.5-78.7,19.5-78.7S194.9,52.5,194.9,95.9Z"/><path class="cls-2" d="M166.6,165.9c-7.1-3.5-18.4-6.4-32.2-8.3A291.68,291.68,0,0,1,106,132.5C75.3,101.8,64.1,63.1,64.1,63.1s38.7,11.2,69.4,41.9a277.72,277.72,0,0,1,24.9,28.3C160.2,147.2,163.1,158.6,166.6,165.9Z"/><path class="cls-2" d="M163.1,174.6c-7.5,2.5-17.7,8.4-29,17h0A287.75,287.75,0,0,1,96.3,194c-43.4,0-78.7-19.5-78.7-19.5S52.8,155,96.3,155a292.32,292.32,0,0,1,38.1,2.4C145.5,166.1,155.6,172.1,163.1,174.6Z"/><path class="cls-2" d="M217,236.5c-9.07-9-17-10.68-24.76-20.8-1.8-13.4-4.6-24.4-7.9-31.6,7.3,3.5,18.8,6.3,32.8,8.2a295,295,0,0,1,27.8,24.6"/><path class="cls-2" d="M332.8,175.2s-35.2,19.5-78.7,19.5a275.84,275.84,0,0,1-36.9-2.3c-11.7-9-22.3-15.2-30-17.7,7.3-2.4,17.2-8.1,28.2-16.4h0a284.37,284.37,0,0,1,38.8-2.5C297.6,155.7,332.8,175.2,332.8,175.2Z"/><path class="cls-2" d="M286.9,62.9s-11.2,38.7-41.9,69.4a299.56,299.56,0,0,1-29.6,26h0c-13.3,1.9-24.2,4.7-31.2,8,3.6-7.3,6.6-18.9,8.5-33.3a287.19,287.19,0,0,1,24.9-28.3C248.3,74.1,286.9,62.9,286.9,62.9Z"/></g><g id="Layer_4" data-name="Layer 4"><path class="cls-3" d="M230.5,120.9a55.52,55.52,0,0,0-11,3.3,105.16,105.16,0,0,0-30.5,19c-.3-10.7-3-23-8.1-35.4a52.3,52.3,0,0,0-5.2-9.7C191.4,74.3,221.9,64,221.9,64S236.2,93,230.5,120.9Z"/><path class="cls-3" d="M175.7,98.1a52.3,52.3,0,0,0-5.2,9.7c-5,12.2-7.7,24.2-8.1,34.8-7.8-7.3-18.3-14-30.5-19.1a58.77,58.77,0,0,0-11.1-3.3c-5.3-27.7,8.8-56,8.8-56S160,74.4,175.7,98.1Z"/><path class="cls-3" d="M142.6,161.3c-10.5.4-22.6,3.1-34.7,8.1a67.72,67.72,0,0,0-9.9,5.3c-23.3-15.8-33.4-45.8-33.4-45.8s28.4-14.1,56.1-8.7a57.38,57.38,0,0,0,3.3,11.2C129,143.3,135.5,153.6,142.6,161.3Z"/><path class="cls-3" d="M286.7,129.6s-10.1,29.9-33.3,45.7a58.38,58.38,0,0,0-10.7-5.9,104.5,104.5,0,0,0-34.1-8.1,103.86,103.86,0,0,0,18.7-30.1,66.14,66.14,0,0,0,3.2-10.4C258.3,115.5,286.7,129.6,286.7,129.6Z"/><path class="cls-3" d="M286.5,220.9s-28.7,14.2-56.5,8.7a55.52,55.52,0,0,0-3.3-11,105.72,105.72,0,0,0-18.1-29.5c10.5-.4,22.4-3.1,34.5-8.1a55,55,0,0,0,10.4-5.7C276.5,191.3,286.5,220.9,286.5,220.9Z"/></g><g id="Layer_5" data-name="Layer 5"><polygon class="cls-3" points="201.6 110.4 175.7 151.9 146.7 110.4 159.9 159.2 107.9 148.3 153.2 175 128.7 194.2 159.9 190.8 160.04 204.8 175.7 197.5 193.9 221.3 192.1 190.8 240.4 201.9 198.8 175 240.4 148.3 191.5 159.2 201.6 110.4"/></g><g id="Layer_6" data-name="Layer 6"><polygon class="cls-1" points="175.5 88.2 172 165.4 114.8 112.8 167.5 171.1 89.6 174.6 166.3 178 150.98 194.7 172 183.2 175.5 259.8 178.9 183.7 235 234.6 184 178 260.1 174.6 185.2 170.6 236.1 113.9 179.5 165.4 175.5 88.2"/></g><g id="Layer_7" data-name="Layer 7"><polygon class="cls-1" points="193.9 129 175.9 158.6 155.7 129 164.9 163.8 128.7 156 160.3 175.1 128.7 194.2 164.9 186.3 155.7 221.3 175.9 191.1 193.9 221.3 187.3 186.3 221 194.2 192 175.1 221 156 186.9 163.8 193.9 129"/></g><g id="Layer_9" data-name="Layer 9"><path class="cls-1" d="M35.71,206.24c-2.67,1.8-8.88,1.08-11.59-2.17-2.94-3.53-1.48-8.15,1.17-11.12a116.2,116.2,0,0,1,34.75-23,149.67,149.67,0,0,1,45.39-9.29c79.31-2.77,81.77,44.59,143.52,52.75,29.73,3.93,48.82-10.89,60.08-22.82,3.94-2.08,9-.29,11.92,2.48a7.49,7.49,0,0,1,0,10.26c-16,14.66-30.49,30.47-73.24,27.47C193.1,227,185.3,172.76,106.16,178c-16.35,1.08-28.38,4-40.09,9.7C52.05,194.45,51.18,195.84,35.71,206.24Z"/></g><g id="Layer_8" data-name="Layer 8"><path class="cls-2" d="M80.7,247.06V218.61a9.43,9.43,0,0,1,17.8,0v15.52"/><path class="cls-2" d="M45.7,272.1V237.17a9.43,9.43,0,0,1,17.8,0V259.8"/><path class="cls-2" d="M133.8,229V334.81a9.66,9.66,0,0,1-17.8,0V252.69"/><path class="cls-2" d="M150.25,233.25a9.43,9.43,0,0,1,17.8,0v65.93a9.66,9.66,0,0,1-17.8,0Z"/><path class="cls-2" d="M184.2,253.38a9.43,9.43,0,0,1,17.8,0V275.3a9.66,9.66,0,0,1-17.8,0Z"/><path class="cls-2" d="M219.67,266.11a9.43,9.43,0,0,1,17.79,0V335a9.65,9.65,0,0,1-17.79,0Z"/><path class="cls-2" d="M254.84,270.17a9.43,9.43,0,0,1,17.8,0V320.1a9.66,9.66,0,0,1-17.8,0Z"/><path class="cls-2" d="M289.29,262.08a9.43,9.43,0,0,1,17.8,0V292a9.65,9.65,0,0,1-17.8,0Z"/><path class="cls-2" d="M43.34,223.47c-2.49,2-8.86,1.08-11.56-2.17-2.93-3.53-1.48-8.15,1.17-11.12a116.14,116.14,0,0,1,34.66-23,149.54,149.54,0,0,1,45.28-9.28c79.11-2.77,76.22,53,143.16,52.75,29.91-.11,48.69-10.89,59.93-22.82,3.93-2.08,9-.29,11.89,2.48a7.5,7.5,0,0,1,0,10.26c-16,14.66-43.71,27.45-73,26.47-70.53-2.36-70.63-52.31-141.21-51.79-16.35.12-28.31,3.05-40,8.7C59.64,210.68,55.72,213.38,43.34,223.47Z"/><path class="cls-2" d="M98.5,276.84v32.69a9.66,9.66,0,0,1-17.8,0v-6.84"/></g></svg>