<svg xmlns="http://www.w3.org/2000/svg" viewBox="0 0 204.38 205.57"><defs><style>.cls-1{fill:#fff;stroke:#fff;stroke-miterlimit:10;}</style></defs><g id="Layer_2" data-name="Layer 2"><g id="Layer_1-2" data-name="Layer 1"><path class="cls-1" d="M203.88,102.79c0,56.49-45.53,102.28-101.69,102.28S.5,159.28.5,102.79,46,.5,102.19.5,203.88,46.3,203.88,102.79ZM133.67,28.64a8.28,8.28,0,0,0,8,4.43,8.16,8.16,0,0,0,7-9,8.33,8.33,0,0,0-8-7,8.68,8.68,0,0,0-8,5l-28,2-5,30c-3.08-.13-6.43-.15-10,0-4,.17-7.65.54-11,1-8.63-3.41-18.07-1.83-24,4a21.37,21.37,0,0,0-6,14,93.07,93.07,0,0,0-16,24c-3.27-3-5.71-3.16-7-3-6.27.78-9.37,12-10,18-1.3,12.55,6,22.45,9,26a10.62,10.62,0,0,1-2,5,10.93,10.93,0,0,1-6,4,23.63,23.63,0,0,0,6,2c2.32.44,3.66.67,5,0,2.4-1.2,2.91-4.34,3-5q3.49,3.51,7,7a5.41,5.41,0,0,0-3,2,5.29,5.29,0,0,0-1,3,5.7,5.7,0,0,0,5-1l3,3a2,2,0,0,0,2-1,2.17,2.17,0,0,0,0-2,155.82,155.82,0,0,0,104,12,19,19,0,0,0,4,2,18.75,18.75,0,0,0,4,1l-4-5a11.08,11.08,0,0,0,6,3,10.32,10.32,0,0,0,3,0l-3-3c1.9-1.33,11.82-3,14-7a22.47,22.47,0,0,0,2-5l5,6a9.62,9.62,0,0,1,8-6c-4.58-2.22-5.72-4.48-6-6-.92-4.95,6.21-7.43,9-17,.66-2.25,1.85-6.54,0-11-1.11-2.66-4.07-7.24-8-7a6.46,6.46,0,0,0-4,2,78.63,78.63,0,0,0-22-43,23.39,23.39,0,0,0-10-12c-9.73-5.61-19.81-1.5-21-1a35.56,35.56,0,0,0-17-4q1.53-11.72,3-23.43Z"/></g></g></svg>