<svg xmlns="http://www.w3.org/2000/svg" viewBox="0 0 216.45 216.51"><defs><style>.cls-1{fill:none;stroke-width:4px;}.cls-1,.cls-2{stroke:#fff;stroke-miterlimit:10;}.cls-2{fill:#fff;}</style></defs><g id="Layer_2" data-name="Layer 2"><g id="Layer_1-2" data-name="Layer 1"><path class="cls-1" d="M112.38,138.73c-6-4.19-11.95-9.37-17.93-13.56L144,77.1,77.76,116.83"/><line class="cls-1" x1="91.14" y1="155.82" x2="94.45" y2="125.17"/><path class="cls-2" d="M81.45,128.32c-8.6,6.35-47,34.58-53.19,38.53-7.28,4.71-10.21.07-10.52-.36C9.67,156,.5,128.22.5,108.22A107.73,107.73,0,1,1,108.22,216c-19.8,0-38.63-4.95-54.35-14.73-6-3.73-8.13-7.46-5.68-12.72,1.84-4,27.71-38.57,36.26-50.24m6,18,22-18L137,154.7c4.64,3.09,9.45,1.18,10.71-4.25l18.81-81.53c1.6-6.93-2.55-10.6-9.23-8.15L57.24,97.44c-10.34,3.78-10.25,9.73.19,13.21l20,6.67Z"/></g></g></svg>