<svg xmlns="http://www.w3.org/2000/svg" viewBox="0 0 227.82 181.96"><defs><style>.cls-1{fill:#fff;stroke:#fff;stroke-miterlimit:10;}</style></defs><g id="Layer_2" data-name="Layer 2"><g id="Layer_1-2" data-name="Layer 1"><path class="cls-1" d="M112.55,56.2A135.09,135.09,0,0,1,58,40.56a134.84,134.84,0,0,1-40.31-33,47.85,47.85,0,0,0-4.86,32.66,47.92,47.92,0,0,0,18.76,28.5,20.58,20.58,0,0,1-9.38.34,20.79,20.79,0,0,1-10.77-5.9,47,47,0,0,0,9,28.14A47.33,47.33,0,0,0,47.57,109a17.49,17.49,0,0,1-8.34,3.82,17.89,17.89,0,0,1-11.81-2.24,51.06,51.06,0,0,0,43.43,31.78A105.48,105.48,0,0,1,2.06,161.48c46.29,27.88,104,26.46,146.62-3.48,56.75-39.88,55.76-108.67,55.6-113.92a44.28,44.28,0,0,0,12.16-8.38,44.44,44.44,0,0,0,10.08-14.94,29.4,29.4,0,0,1-12.17,6.6,29.3,29.3,0,0,1-12.85.45,37.71,37.71,0,0,0,13.9-12.27A37.59,37.59,0,0,0,221,2.69a101,101,0,0,1-13.21,6.25,100.82,100.82,0,0,1-14.94,4.52A48,48,0,0,0,112.55,56.2Z"/></g></g></svg>