<svg xmlns="http://www.w3.org/2000/svg" viewBox="0 0 188.27 156.96"><defs><style>.cls-1{fill:#fff;stroke:#fff;}</style></defs><g id="Layer_2" data-name="Layer 2"><g id="Layer_1-2" data-name="Layer 1"><path class="cls-1" d="M22.21,133.27H9.48a9,9,0,0,1-9-9V111.46a8.59,8.59,0,0,1,8.58-8.59H22.21l-.8-51.18H9A8.51,8.51,0,0,1,.5,43.18V29.64a7.15,7.15,0,0,1,7.15-7.15H22.21V.5H187.77v156h-166ZM103.79,31.05a45.59,45.59,0,1,0,45.59,45.58A45.59,45.59,0,0,0,103.79,31.05Zm70,84.51v-69a2.11,2.11,0,0,0-2.11-2.11h-4.57A2.11,2.11,0,0,0,165,46.6v69a2.12,2.12,0,0,0,2.12,2.11h4.57A2.12,2.12,0,0,0,173.77,115.56Z"/><path class="cls-1" d="M82.83,42.55a4.43,4.43,0,0,0-4.82,0,4.48,4.48,0,0,0-1.68,5.18L94.85,68.37A13.77,13.77,0,0,0,91.69,78L64.2,85.05a4.51,4.51,0,0,0-1.73,5.34A4.4,4.4,0,0,0,66,93L93.65,83a12.29,12.29,0,0,0,3.64,4,12.49,12.49,0,0,0,4.37,1.9L99.11,117a4.27,4.27,0,0,0,8.12,0l-.66-28.2a12.79,12.79,0,0,0,8.71-6.34l25,10.49a3.54,3.54,0,0,0,2.33-6.31l-26.08-8.17a13,13,0,0,0-.48-5.2,12.88,12.88,0,0,0-2.69-4.79l16.11-22.27a3.53,3.53,0,0,0-5.63-3.67L110.19,65.28a17.28,17.28,0,0,0-11.6,0Z"/></g></g></svg>